HIERARCHY
ROOT Hips
{
  OFFSET -125.086 92.215 135.881
  CHANNELS 6 Xposition Yposition Zposition Zrotation Xrotation Yrotation
  JOINT LeftUpLeg
  {
    OFFSET 8.64259 1.95398 -2.38835
    CHANNELS 3 Zrotation Xrotation Yrotation
    JOINT LeftLeg
    {
      OFFSET 43.7702 0 0
      CHANNELS 3 Zrotation Xrotation Yrotation
      JOINT LeftFoot
      {
        OFFSET 40.6238 0 0
        CHANNELS 3 Zrotation Xrotation Yrotation
        JOINT LeftToeBase
        {
          OFFSET 12.7242 0 0
          CHANNELS 3 Zrotation Xrotation Yrotation
          End Site
          {
            OFFSET 0 0 0
          }
        }
      }
    }
  }
  JOINT RightUpLeg
  {
    OFFSET -8.2249 1.95398 -2.59336
    CHANNELS 3 Zrotation Xrotation Yrotation
    JOINT RightLeg
    {
      OFFSET 43.5653 0 0
      CHANNELS 3 Zrotation Xrotation Yrotation
      JOINT RightFoot
      {
        OFFSET 40.6238 0 0
        CHANNELS 3 Zrotation Xrotation Yrotation
        JOINT RightToeBase
        {
          OFFSET 12.7242 0 0
          CHANNELS 3 Zrotation Xrotation Yrotation
          End Site
          {
            OFFSET 0 0 0
          }
        }
      }
    }
  }
  JOINT Spine
  {
    OFFSET 0.165834 0.87714 6.61349
    CHANNELS 3 Zrotation Xrotation Yrotation
    JOINT Spine1
    {
      OFFSET 7.38963 1.71661e-005 0
      CHANNELS 3 Zrotation Xrotation Yrotation
      JOINT Spine2
      {
        OFFSET 11.9445 1.14441e-005 0
        CHANNELS 3 Zrotation Xrotation Yrotation
        JOINT Spine3
        {
          OFFSET 14.7254 4.19617e-005 0
          CHANNELS 3 Zrotation Xrotation Yrotation
          JOINT Spine4
          {
            OFFSET 10.9679 0 0
            CHANNELS 3 Zrotation Xrotation Yrotation
            JOINT RightShoulder
            {
              OFFSET 2.46616 -1.6653 3.69651
              CHANNELS 3 Zrotation Xrotation Yrotation
              JOINT RightArm
              {
                OFFSET 13.0012 0 0
                CHANNELS 3 Zrotation Xrotation Yrotation
                JOINT RightForeArm
                {
                  OFFSET 28.7848 1.52588e-005 0
                  CHANNELS 3 Zrotation Xrotation Yrotation
                  JOINT RightHand
                  {
                    OFFSET 26.5688 1.52588e-005 0
                    CHANNELS 3 Zrotation Xrotation Yrotation
                    End Site
                    {
                      OFFSET 0 0 0
                    }
                  }
                }
              }
            }
            JOINT LeftShoulder
            {
              OFFSET 2.38034 -1.29275 -3.7523
              CHANNELS 3 Zrotation Xrotation Yrotation
              JOINT LeftArm
              {
                OFFSET 16.3182 6.10352e-005 0
                CHANNELS 3 Zrotation Xrotation Yrotation
                JOINT LeftForeArm
                {
                  OFFSET 27.0901 0 0
                  CHANNELS 3 Zrotation Xrotation Yrotation
                  JOINT LeftHand
                  {
                    OFFSET 24.5451 1.52588e-005 0
                    CHANNELS 3 Zrotation Xrotation Yrotation
                    End Site
                    {
                      OFFSET 0 0 0
                    }
                  }
                }
              }
            }
            JOINT Neck
            {
              OFFSET 5.0226 -0.0266342 0
              CHANNELS 3 Zrotation Xrotation Yrotation
              JOINT Head
              {
                OFFSET 6.69363 2.86102e-005 0
                CHANNELS 3 Zrotation Xrotation Yrotation
                End Site
                {
                  OFFSET 0 0 0
                }
              }
            }
          }
        }
      }
    }
  }
}
MOTION
Frames:	14
Frame Time:	0.0416667
-358.402 80.6561 -8.62205 37.7314 36.1051 111.66 -148.035 35.751 102.098 2.11135 22.5148 -50.8451 15.2411 -10.4847 -29.5179 -107.557 -76.2168 33.7231 143.862 68.5835 73.4451 -62.7227 -15.6773 19.8431 -73.7769 55.2524 55.4611 127.518 50.8598 71.3571 -1.94189 2.59332 -86.6864 21.7064 -1.94209 7.26946 10.0161 -1.62114 7.34729 -12.3991 -4.03296 6.35599 7.61357 -4.03294 6.356 178.738 -70.7758 5.98 17.778 39.604 54.8416 -138.362 17.5935 -76.0333 -5.7817 2.63542 -59.6398 -80.6096 -33.396 91.6376 133.431 -22.6836 -110.665 -62.7256 56.0974 -75.9138 103.937 11.0819 4.01223 -28.4374 -28.3605 -55.8114 158.461 15.7676 -8.41525 
-358.958 80.6959 -8.78175 37.6817 35.8491 111.328 -147.53 35.5785 101.787 5.26176 24.6282 -52.7157 17.0067 -9.85849 -29.041 -21.8444 -82.077 118.391 143.18 68.5136 74.7258 -63.6086 -16.4167 19.3519 -73.7263 55.8053 56.7012 125.836 50.91 72.7774 -2.00174 2.46006 -86.7537 21.9793 -2.08504 7.17935 10.2897 -1.7679 7.26353 -12.1322 -4.14244 6.22699 7.88041 -4.14245 6.227 176.518 -71.1312 3.46802 16.771 39.1416 55.5294 -147.284 15.8521 -73.2678 -5.20092 2.37427 -60.4418 -79.8859 -35.0146 93.084 133.448 -22.2243 -111.679 -70.7802 56.3711 -68.8464 105.071 10.1112 3.12817 -28.1666 -28.0393 -54.3125 158.709 15.6707 -8.38644 
-360.535 80.8088 -9.23286 37.5527 35.1319 110.393 -146.185 34.9188 100.865 14.2852 29.6352 -58.0668 22.5516 -8.16673 -27.5438 34.0146 -44.9467 170.029 141.192 68.0192 78.4588 -65.9024 -18.3565 17.9275 -73.6207 57.405 60.2207 121.256 50.8108 76.5386 -2.17208 2.08235 -86.9646 22.7546 -2.50207 6.89225 11.0672 -2.19706 6.995 -11.3754 -4.45457 5.82739 8.63729 -4.45456 5.8274 169.676 -72.0644 -4.27034 13.935 37.7432 57.479 -167.5 10.4638 -68.2339 -4.60932 2.15357 -62.3666 -77.3391 -39.6623 97.7217 134.574 -21.0838 -113.985 -91.8581 53.7645 -50.3437 107.553 6.6015 0.333442 -27.2003 -26.9042 -49.8794 159.376 15.5911 -8.21118 
-362.892 80.9956 -10.1258 29.4582 32.5919 110.875 -144.258 29.8889 95.9685 27.9112 30.3927 -66.1164 32.3832 -5.82552 -25.6328 45.842 16.7455 167.151 148.231 73.3942 71.6325 -68.9181 -20.768 16.4582 -73.5677 59.9666 65.7628 114.892 50.0705 81.4309 -2.44903 0.987438 -87.8381 25.5132 -3.13213 6.77398 13.8265 -2.83192 6.90447 -8.62749 -5.01931 5.52516 11.3852 -5.01931 5.52516 157.863 -73.1607 -17.6267 9.57841 35.3487 60.4225 172.751 3.83796 -65.3055 -5.54036 2.73917 -63.6031 -71.7028 -46.7997 106.555 138.952 -19.8081 -116.187 -113.186 44.1439 -32.2918 108.591 0.0851053 -4.23691 -25.1244 -24.2912 -42.6927 160.307 16.3006 -7.63422 
-367.475 81.0142 -7.96716 157.327 37.0307 70.1952 -160.243 35.642 179.902 129.99 48.7089 159.11 55.6039 -2.14122 -9.21837 157.376 64.1932 53.3125 124.798 -34.4684 54.0166 -68.88 -24.0685 1.25883 -73.9602 63.0567 70.0294 107.825 48.5571 86.4975 -2.11209 11.9754 -90.0688 2.915 -4.24589 -0.179096 -8.74901 -4.24965 0.0082855 -31.335 -3.99545 -1.44893 -11.3224 -3.99544 -1.44894 141.971 -73.7292 -35.6284 4.00629 31.9168 63.8571 156.151 -2.10473 -63.9702 -8.0597 3.91903 -60.9271 -60.8047 -55.1133 121.138 147.393 -18.3809 -117.625 -126.078 31.4257 -22.2782 105.253 -7.21807 -9.58764 -21.7618 -18.7607 -33.5958 161.335 19.3154 -6.35378 
-372.355 78.8752 -8.86236 161.341 34.2794 68.6612 -160.371 35.0386 -176.688 123.521 34.5404 161.21 67.5012 6.47205 -1.59426 -177.321 20.7127 17.8279 116.605 -40.4666 47.5949 -74.1055 -27.1648 -1.67712 -73.2084 67.6975 78.1047 101.854 46.099 89.6783 -2.997 11.9789 -89.9227 2.90912 -5.95597 0.0879687 -8.74817 -5.9463 0.350936 -31.3869 -5.70609 -1.71209 -11.3742 -5.70611 -1.71209 125.388 -73.2699 -54.6086 -2.63495 27.534 67.1358 140.974 -8.34018 -65.6107 -14.1107 0.717001 -23.3823 -42.5792 -62.3787 142.564 157.541 -15.3785 -119.4 -132.884 20.1087 -17.1882 98.3857 -12.9887 -15.0666 -18.4474 -9.44718 -24.3496 162.351 25.3957 -4.43331 
-378.617 76.0559 -9.97053 164.839 31.4339 67.4932 -160.385 35.0546 -174.982 117.08 25.2591 161.055 74.9737 15.3032 3.36283 173.961 7.90163 13.8025 104.643 -46.1017 37.7015 -77.8054 -29.6653 -4.44358 -72.419 72.8003 85.9664 97.2746 43.2368 91.0122 -3.87806 11.9156 -89.7619 3.0408 -7.65246 0.397536 -8.60767 -7.6275 0.735944 -31.3171 -7.41611 -1.93379 -11.3044 -7.41612 -1.9338 111.275 -71.8765 -71.1502 -10.5483 22.6889 69.6209 135.197 -12.7703 -80.2405 -10.7468 -3.15294 96.7045 -18.0528 -66.8047 168.921 164.813 -8.60528 -123.463 -137.048 7.66432 -13.2673 91.4384 -18.5509 -21.6661 -16.9843 1.51452 -15.9062 163.339 32.5874 -2.54505 
-386.072 73.4235 -11.4228 167.587 28.6977 66.7166 -159.423 35.7605 -175.452 109.602 19.6693 160.441 76.5788 21.5056 7.24807 164.798 4.70491 12.8829 88.0287 -50.2 23.4548 -77.4881 -31.1219 -6.64337 -70.0165 77.1219 90.2809 94.1656 40.3361 90.6184 -4.6727 11.8106 -89.6227 3.25948 -9.18475 0.682951 -8.37914 -9.14571 1.08995 -31.1685 -8.96177 -2.1321 -11.1559 -8.96178 -2.13209 101.067 -69.996 -83.5401 -21.9302 18.6477 71.1285 130.322 -21.9764 -77.9532 -28.3929 -44.781 110.931 6.42038 -68.4542 -166.407 166.079 3.17077 -129.563 -139.469 -9.71617 -8.78013 85.0067 -24.8818 -30.2923 -17.0039 13.8643 -8.67778 164.133 41.4516 -0.963132 
-394.579 71.3266 -13.237 169.493 26.2087 66.2918 -156.275 37.1266 -178.388 102.752 17.5897 160.071 73.8063 24.934 10.232 157.879 3.58693 12.6505 68.537 -51.2551 6.50286 -72.4612 -31.5352 -7.96689 -62.1044 79.6568 86.3806 92.3536 37.6341 88.8595 -5.29715 11.6507 -89.5316 3.58961 -10.3955 0.899449 -8.03994 -10.3457 1.36106 -30.9032 -10.1799 -2.30022 -10.8906 -10.1799 -2.30024 94.926 -68.3881 -91.2905 -52.8867 18.4894 75.0065 146.62 -8.62239 -51.7513 -60.2992 -67.9485 94.086 25.1088 -68.9451 -148.646 162.026 19.1429 -135.284 -138.605 -31.2711 -2.80398 77.4929 -30.55 -40.4168 -18.8913 26.9573 -2.70407 164.987 52.0309 0.0563216 
-403.877 69.8686 -15.3376 170.558 24.0355 66.159 -149.897 38.8231 175.801 98.1773 17.8503 160.207 68.8002 26.287 12.7 153.003 3.08384 12.5925 49.4448 -49.0221 -9.83601 -62.4618 -30.9165 -8.14518 -48.3137 79.4713 73.6049 91.6028 35.225 86.1229 -5.76462 11.4559 -89.5071 3.9879 -11.3189 1.00573 -7.63387 -11.2636 1.50933 -30.5594 -11.0911 -2.4864 -10.5467 -11.0911 -2.4864 91.2842 -67.1048 -96.0535 -178.221 8.52851 92.9155 -174.967 -72.2477 148.785 -16.9937 -65.7443 145.764 39.0269 -69.2689 -136.085 154.573 37.3712 -138.024 148.736 45.4747 179.84 68.7132 -34.2233 -50.8998 -22.7174 40.0443 3.01632 166.141 63.6938 0.14241 
-413.622 69.0091 -17.5907 170.829 22.1962 66.2654 -140.101 39.9068 166.909 96.8933 19.5985 160.709 63.5017 26.4976 14.6574 149.625 2.83859 12.599 32.5923 -44.329 -23.6355 -47.2706 -29.1692 -6.96419 -38.2583 76.0552 61.4902 91.6871 33.11 82.7399 -6.09558 11.244 -89.5528 4.41539 -11.9975 0.986553 -7.20008 -11.9422 1.52131 -30.1735 -11.7312 -2.71683 -10.1609 -11.7312 -2.71684 89.198 -66.0506 -98.8926 80.1125 -14.688 89.2037 -4.70383 -70.8454 -0.00751141 1.67743 -20.9731 -163.785 50.0666 -69.5926 -126.48 143.455 55.5251 -135.518 142.41 85.8135 -179.293 59.8021 -35.7128 -60.4976 -29.374 53.3983 9.96644 168.764 76.7148 -1.85331 
-423.468 68.6328 -19.8391 170.371 20.6772 66.5736 -128.131 39.0232 155.627 99.2791 22.4755 161.364 59.4833 26.3843 15.9526 147.289 2.7407 12.6498 9.64247 -32.0738 -40.342 -7.56203 -21.8002 -1.11585 -41.0427 65.3927 49.4438 92.3936 31.2478 78.9886 -6.31702 11.0314 -89.6634 4.83865 -12.484 0.843795 -6.77193 -12.4346 1.40113 -29.7797 -12.1513 -3.0053 -9.76705 -12.1513 -3.00529 88.0279 -65.0603 -100.59 68.6812 -16.452 86.8982 10.8995 -57.4201 0.0108902 11.162 -25.233 -135.827 59.9845 -69.7773 -118.002 122.014 71.3216 -120.53 -34.4397 70.0974 -0.142878 51.8375 -35.5873 -68.4345 -41.6191 65.3377 21.6831 -121.326 88.6562 -71.6932 
-433.12 68.6079 -21.9381 169.247 19.4482 67.0614 -116.527 35.1917 143.712 105.182 26.4687 162.092 57.7369 26.3558 16.4538 145.693 2.75759 12.7491 4.31176 -28.9578 -43.4994 -0.45021 -19.6014 -0.0446315 -36.8598 62.5711 45.0074 93.5249 29.5827 75.102 -6.45618 10.8313 -89.8291 5.2302 -12.8292 0.589749 -6.37664 -12.7906 1.16333 -29.4069 -12.4036 -3.35532 -9.39426 -12.4036 -3.35534 87.3353 -63.9799 -101.716 69.8611 -18.4442 89.7994 28.3756 -58.5185 0.0282386 13.5728 -21.2271 -117.83 70.1333 -69.6064 -109.382 61.188 78.8708 -64.0241 -32.0211 49.8471 -0.0707961 45.2079 -34.5413 -74.632 -63.9107 73.233 43.4733 -26.54 79.4221 -166.81 
-442.36 68.8266 -23.7819 167.504 18.4742 67.7184 -107.734 28.3295 132.782 114.243 31.8485 162.929 58.7019 26.3649 15.9582 144.655 2.89372 12.9151 2.30998 -29.2039 -44.1154 -0.39816 -18.0846 -0.0338841 -30.797 60.8907 41.2594 94.9054 28.0685 71.2672 -6.53648 10.6553 -90.0388 5.56685 -13.0759 0.240341 -6.03715 -13.0525 0.825767 -29.0804 -12.5335 -3.76491 -9.06771 -12.5335 -3.76492 86.8279 -62.6863 -102.67 73.3139 -19.9852 92.6571 42.0918 -60.8741 0.0429523 14.4029 -18.1099 -105.816 81.3319 -68.7825 -99.9497 10.541 70.8849 -15.7385 -29.5935 32.8017 -0.0505768 39.8171 -33.0635 -79.3869 -118.178 76.5936 96.7587 -23.5032 65.5222 -170.65 
